<svg role="img" aria-label="Visuality" viewBox="0 0 106 28" fill="none" xmlns="http://www.w3.org/2000/svg">
    <g clip-path="url(#clip0_381_1131)">
        <path d="M15.4872 5.78467H11.0687L7.86618 18.4736H7.77778L4.53523 5.78467H0L5.37589 22.4974H10.158L15.4872 5.78467Z" fill="currentColor" />
        <path d="M35.0105 20.2608C35.5918 19.442 35.8981 18.4355 35.8795 17.4054V17.3892C35.8795 16.1652 35.5248 15.1883 34.8154 14.4584C34.1059 13.7285 32.9339 13.1829 31.2993 12.8216L28.6622 12.2132C27.8838 12.0373 27.3384 11.8034 27.0259 11.5114C26.8783 11.381 26.76 11.2165 26.6797 11.03C26.5994 10.8436 26.5592 10.64 26.5622 10.4346V10.4202C26.5554 10.0807 26.6579 9.74902 26.8524 9.48154C27.0717 9.20245 27.357 8.99225 27.6781 8.87311C28.0827 8.72153 28.509 8.64802 28.9374 8.65595C29.723 8.65595 30.3369 8.85876 30.7872 9.25719C31.001 9.43849 31.1793 9.6634 31.3122 9.91902C31.445 10.1746 31.5296 10.456 31.5611 10.7468L31.5745 10.8707H35.4742V10.7127C35.4479 9.76032 35.1632 8.83699 34.6552 8.0565C34.0907 7.21494 33.3238 6.55476 32.4368 6.14688C31.4777 5.67306 30.3085 5.42898 28.9341 5.42898C27.7602 5.40518 26.5932 5.62706 25.498 6.08227C24.5979 6.44829 23.8106 7.07731 23.2246 7.89856C22.6798 8.70299 22.3967 9.6782 22.419 10.6733V10.6876C22.419 11.9356 22.8004 12.9652 23.5632 13.7764C24.326 14.5876 25.4608 15.1595 26.9675 15.4922L29.6046 16.1006C30.3685 16.2765 30.8995 16.499 31.1975 16.7682C31.3443 16.8986 31.4613 17.0635 31.5393 17.2502C31.6174 17.4369 31.6546 17.6405 31.6479 17.8451V17.8613C31.6551 18.2029 31.5446 18.5353 31.3376 18.7945C31.1 19.0761 30.7964 19.2838 30.4586 19.3958C30.0141 19.5457 29.5499 19.6167 29.0842 19.6058C28.2502 19.6058 27.583 19.4263 27.1143 19.0673C26.6394 18.7027 26.3123 18.1561 26.2003 17.54L26.1719 17.3964H22.042L22.0553 17.54C22.1535 18.5436 22.5034 19.4997 23.0678 20.3057C23.6822 21.1428 24.4954 21.7859 25.4213 22.1669C26.4299 22.6144 27.6497 22.8387 29.0809 22.8399C30.2864 22.8654 31.4847 22.6342 32.607 22.1597C33.5517 21.7697 34.3818 21.1139 35.0105 20.2608Z" fill="currentColor" />
        <path d="M57.999 22.4938H60.8896L62.9329 20.3006H63.0229V22.4974H67.2513V11.0397C67.2724 9.98835 66.9866 8.95638 66.434 8.08909C65.853 7.21841 65.0567 6.54062 64.1355 6.1328C63.8355 5.99346 63.5267 5.87711 63.2114 5.78462C62.3763 5.54612 61.5151 5.43021 60.6511 5.44003C59.29 5.44003 58.1141 5.66975 57.125 6.12024L57.0749 6.14177C56.1794 6.53334 55.3962 7.173 54.8048 7.99576C54.2442 8.79592 53.9054 9.75037 53.8274 10.7489L53.8124 10.9284H57.6954L57.7238 10.7884C57.8368 10.2419 58.1431 9.76429 58.5778 9.45669C59.0415 9.10851 59.6686 8.93442 60.4643 8.93442C61.2983 8.93442 61.9271 9.14979 62.3624 9.57335C62.5813 9.79656 62.7529 10.0679 62.8655 10.369C62.978 10.6701 63.0289 10.9937 63.0146 11.3179V12.3427L59.1783 12.5975C58.4652 12.6439 57.7574 12.7586 57.0633 12.9403C56.2128 13.1547 55.4109 13.5501 54.7047 14.1033C53.6495 14.9708 53.1207 16.1631 53.1185 17.6803V17.709C53.112 18.2994 53.203 18.8864 53.387 19.4427C53.8186 20.3602 54.4781 21.1311 55.2922 21.6696C56.1064 22.2082 57.0433 22.4935 57.999 22.4938ZM57.9573 16.0327C58.3832 15.6737 59.0014 15.4709 59.8121 15.4243L63.0146 15.1963V16.4042C63.0201 16.9569 62.8708 17.4985 62.5859 17.9585C62.2929 18.4266 61.8901 18.803 61.4183 19.0497C61.4072 19.0568 61.3955 19.0628 61.3833 19.0676C60.8667 19.3247 60.3028 19.4529 59.7337 19.4427C58.9981 19.4427 58.4143 19.2632 57.979 18.9204C57.7688 18.7574 57.5993 18.5411 57.4855 18.2906C57.3717 18.0401 57.3172 17.7633 57.3268 17.4846V17.4559C57.3234 17.4159 57.3234 17.3757 57.3268 17.3357C57.3317 17.0802 57.3911 16.8293 57.5004 16.6025C57.6097 16.3756 57.766 16.1788 57.9573 16.0273V16.0327Z" fill="currentColor" />
        <path d="M73.6897 0H69.458V22.4973H73.6897V0Z" fill="currentColor" />
        <path d="M86.5666 1.69629H82.2949V8.74968V17.8168V22.4975H84.9737H86.5666V9.21453H89.4072V5.78474H86.5666V1.69629Z" fill="currentColor" />
        <path d="M20.6229 5.78076H16.3779V10.3484H18.4162V10.4417L16.3779 12.6331V22.4935H20.6229V5.78076Z" fill="currentColor" />
        <path d="M75.8896 10.3484H77.9262V10.4417L75.8896 12.6331V22.4935H80.1346V5.78076H75.8896V10.3484Z" fill="currentColor" />
        <path d="M37.2906 17.9654C37.5148 19.2387 38.145 20.3879 39.0726 21.2146C40.0001 22.0413 41.1668 22.4936 42.3712 22.4935H45.2619L47.2985 20.3021H47.3869V22.4935H51.6168V5.78076H47.3869V19.062H44.2861C43.3398 19.062 42.6281 18.7628 42.1511 18.1646C41.674 17.5663 41.4344 16.7192 41.4322 15.6232V5.78076H37.2022V16.5708C37.2009 17.0344 37.2305 17.4974 37.2906 17.9564V17.9654Z" fill="currentColor" />
        <path d="M101.525 5.78467L98.2557 18.8487H98.1373L94.858 5.78467H90.2061L95.6854 22.4974H97.3417L95.9672 28.0002H99.7836L106 5.78467H101.525Z" fill="currentColor" />
    </g>
    <defs>
        <clipPath id="clip0_381_1131">
            <rect width="106" height="28" fill="transparent" />
        </clipPath>
    </defs>
</svg>
