<?xml version="1.0" encoding="UTF-8"?>
<svg width="480px" height="120px" viewBox="0 0 480 120" version="1.1" xmlns="http://www.w3.org/2000/svg" xmlns:xlink="http://www.w3.org/1999/xlink">
    <!-- Generator: Sketch 48.1 (47250) - http://www.bohemiancoding.com/sketch -->
    <title>balkanruby-logo</title>
    <desc>Created with Sketch.</desc>
    <defs></defs>
    <g id="Page-1" stroke="none" stroke-width="1" fill="none" fill-rule="evenodd">
        <g id="balkanruby-logo">
            <path d="M122.671875,82 L122.671875,36.5 L139.015625,36.5 C144.869821,36.5 149.322901,37.5729059 152.375,39.71875 C155.427099,41.8645941 156.953125,44.9791462 156.953125,49.0625 C156.953125,51.4166784 156.411464,53.427075 155.328125,55.09375 C154.244786,56.760425 152.651052,57.9895794 150.546875,58.78125 C152.921887,59.4062531 154.744785,60.5729081 156.015625,62.28125 C157.286465,63.9895919 157.921875,66.0729044 157.921875,68.53125 C157.921875,72.9896056 156.510431,76.3385305 153.6875,78.578125 C150.864569,80.8177195 146.682319,81.9583331 141.140625,82 L122.671875,82 Z M133.640625,62.65625 L133.640625,73.5625 L140.828125,73.5625 C142.807302,73.5625 144.32812,73.1093795 145.390625,72.203125 C146.45313,71.2968705 146.984375,70.0208416 146.984375,68.375 C146.984375,64.5833144 145.098977,62.6770834 141.328125,62.65625 L133.640625,62.65625 Z M133.640625,55.46875 L139.359375,55.46875 C141.75522,55.4479166 143.463537,55.0104209 144.484375,54.15625 C145.505213,53.3020791 146.015625,52.041675 146.015625,50.375 C146.015625,48.4583238 145.463547,47.0781292 144.359375,46.234375 C143.255203,45.3906208 141.473971,44.96875 139.015625,44.96875 L133.640625,44.96875 L133.640625,55.46875 Z M182.515625,82 C182.140623,81.3124966 181.807293,80.30209 181.515625,78.96875 C179.578115,81.4062622 176.869809,82.625 173.390625,82.625 C170.203109,82.625 167.494803,81.661468 165.265625,79.734375 C163.036447,77.807282 161.921875,75.3854312 161.921875,72.46875 C161.921875,68.802065 163.276028,66.0312594 165.984375,64.15625 C168.692722,62.2812406 172.630182,61.34375 177.796875,61.34375 L181.046875,61.34375 L181.046875,59.5625 C181.046875,56.4583178 179.703138,54.90625 177.015625,54.90625 C174.515613,54.90625 173.265625,56.1354044 173.265625,58.59375 L162.734375,58.59375 C162.734375,55.3229003 164.124986,52.6666769 166.90625,50.625 C169.687514,48.5833231 173.234353,47.5625 177.546875,47.5625 C181.859397,47.5625 185.265613,48.6145728 187.765625,50.71875 C190.265637,52.8229272 191.546875,55.708315 191.609375,59.375 L191.609375,74.34375 C191.651042,77.4479322 192.130204,79.8229084 193.046875,81.46875 L193.046875,82 L182.515625,82 Z M175.921875,75.125 C177.234382,75.125 178.322912,74.8437528 179.1875,74.28125 C180.052088,73.7187472 180.671873,73.0833369 181.046875,72.375 L181.046875,66.96875 L177.984375,66.96875 C174.31769,66.96875 172.484375,68.6145669 172.484375,71.90625 C172.484375,72.8645881 172.807288,73.640622 173.453125,74.234375 C174.098962,74.828128 174.92187,75.125 175.921875,75.125 Z M208.546875,82 L197.984375,82 L197.984375,34 L208.546875,34 L208.546875,82 Z M228.609375,69.40625 L225.640625,72.375 L225.640625,82 L215.109375,82 L215.109375,33.96875 L225.640625,33.96875 L225.640625,59.46875 L226.703125,58.0625 L234.640625,48.1875 L247.265625,48.1875 L235.421875,62.09375 L248.046875,82 L235.984375,82 L228.609375,69.40625 Z M269.078125,82 C268.703123,81.3124966 268.369793,80.30209 268.078125,78.96875 C266.140615,81.4062622 263.432309,82.625 259.953125,82.625 C256.765609,82.625 254.057303,81.661468 251.828125,79.734375 C249.598947,77.807282 248.484375,75.3854312 248.484375,72.46875 C248.484375,68.802065 249.838528,66.0312594 252.546875,64.15625 C255.255222,62.2812406 259.192682,61.34375 264.359375,61.34375 L267.609375,61.34375 L267.609375,59.5625 C267.609375,56.4583178 266.265638,54.90625 263.578125,54.90625 C261.078112,54.90625 259.828125,56.1354044 259.828125,58.59375 L249.296875,58.59375 C249.296875,55.3229003 250.687486,52.6666769 253.46875,50.625 C256.250014,48.5833231 259.796853,47.5625 264.109375,47.5625 C268.421897,47.5625 271.828112,48.6145728 274.328125,50.71875 C276.828138,52.8229272 278.109375,55.708315 278.171875,59.375 L278.171875,74.34375 C278.213542,77.4479322 278.692704,79.8229084 279.609375,81.46875 L279.609375,82 L269.078125,82 Z M262.484375,75.125 C263.796882,75.125 264.885412,74.8437528 265.75,74.28125 C266.614588,73.7187472 267.234373,73.0833369 267.609375,72.375 L267.609375,66.96875 L264.546875,66.96875 C260.88019,66.96875 259.046875,68.6145669 259.046875,71.90625 C259.046875,72.8645881 259.369788,73.640622 260.015625,74.234375 C260.661462,74.828128 261.48437,75.125 262.484375,75.125 Z M293.671875,48.1875 L294.015625,52.15625 C296.34897,49.0937347 299.567688,47.5625 303.671875,47.5625 C307.192726,47.5625 309.822908,48.6145728 311.5625,50.71875 C313.302092,52.8229272 314.203125,55.9895622 314.265625,60.21875 L314.265625,82 L303.703125,82 L303.703125,60.65625 C303.703125,58.9479081 303.359378,57.6927123 302.671875,56.890625 C301.984372,56.0885377 300.734384,55.6875 298.921875,55.6875 C296.859365,55.6875 295.32813,56.4999919 294.328125,58.125 L294.328125,82 L283.796875,82 L283.796875,48.1875 L293.671875,48.1875 Z M353.421875,65.9375 L347.484375,65.9375 L347.484375,82 L336.515625,82 L336.515625,36.5 L354.421875,36.5 C359.817735,36.5 364.036443,37.6979047 367.078125,40.09375 C370.119807,42.4895953 371.640625,45.8749781 371.640625,50.25 C371.640625,53.4166825 371.000006,56.0416563 369.71875,58.125 C368.437494,60.2083438 366.432305,61.8958269 363.703125,63.1875 L373.203125,81.53125 L373.203125,82 L361.453125,82 L353.421875,65.9375 Z M347.484375,57.46875 L354.421875,57.46875 C356.505219,57.46875 358.072911,56.9218805 359.125,55.828125 C360.177089,54.7343695 360.703125,53.2083431 360.703125,51.25 C360.703125,49.2916569 360.17188,47.7552139 359.109375,46.640625 C358.04687,45.5260361 356.484385,44.96875 354.421875,44.96875 L347.484375,44.96875 L347.484375,57.46875 Z M397.921875,78.34375 C395.692697,81.1979309 392.682311,82.625 388.890625,82.625 C385.182273,82.625 382.37501,81.5468858 380.46875,79.390625 C378.56249,77.2343642 377.609375,74.1354369 377.609375,70.09375 L377.609375,48.1875 L388.140625,48.1875 L388.140625,70.15625 C388.140625,73.0520978 389.546861,74.5 392.359375,74.5 C394.776054,74.5 396.494787,73.6354253 397.515625,71.90625 L397.515625,48.1875 L408.109375,48.1875 L408.109375,82 L398.234375,82 L397.921875,78.34375 Z M445.265625,65.375 C445.265625,70.9166944 444.119803,75.1770684 441.828125,78.15625 C439.536447,81.1354316 436.307312,82.625 432.140625,82.625 C428.703108,82.625 425.932302,81.2604303 423.828125,78.53125 L423.390625,82 L413.953125,82 L413.953125,34 L424.484375,34 L424.484375,50.90625 C426.442718,48.6770722 428.973943,47.5625 432.078125,47.5625 C436.286479,47.5625 439.536447,49.0729016 441.828125,52.09375 C444.119803,55.1145984 445.265625,59.3645559 445.265625,64.84375 L445.265625,65.375 Z M434.703125,64.71875 C434.703125,61.4687337 434.270838,59.1510486 433.40625,57.765625 C432.541662,56.3802014 431.213551,55.6875 429.421875,55.6875 C427.046863,55.6875 425.401046,56.5937409 424.484375,58.40625 L424.484375,71.84375 C425.380213,73.6354256 427.046863,74.53125 429.484375,74.53125 C431.963554,74.53125 433.536455,73.3229288 434.203125,70.90625 C434.53646,69.7187441 434.703125,67.6562647 434.703125,64.71875 Z M463.078125,67.25 L468.703125,48.1875 L479.984375,48.1875 L466.203125,87.65625 L465.609375,89.09375 C463.651032,93.4687719 460.192733,95.65625 455.234375,95.65625 C453.859368,95.65625 452.411466,95.4479187 450.890625,95.03125 L450.890625,87.5 L452.265625,87.5 C453.744799,87.5 454.874996,87.2864605 455.65625,86.859375 C456.437504,86.4322895 457.015623,85.6666722 457.390625,84.5625 L458.234375,82.3125 L446.484375,48.1875 L457.734375,48.1875 L463.078125,67.25 Z" id="Balkan-Ruby" fill="#000000"></path>
            <g id="ruby" transform="translate(1.000000, 1.000000)" stroke="#000000" stroke-width="2">
                <path d="M50,118 L91,56" id="Shape"></path>
                <path d="M50,118 L94,80" id="Shape"></path>
                <path d="M50,118 L9,56" id="Shape"></path>
                <path d="M9,56 L75,80" id="Shape"></path>
                <path d="M92,56 L99,40" id="Shape"></path>
                <path d="M99,39 L75,29" id="Shape"></path>
                <path d="M94,80 L99,40" id="Shape"></path>
                <path d="M92,56 L95,80" id="Shape"></path>
                <path d="M75,30 L93,21" id="Shape"></path>
                <path d="M93,21 L99,40" id="Shape"></path>
                <path d="M11,26 L32,14" id="Shape"></path>
                <path d="M9,72 L10,26" id="Shape"></path>
                <path d="M9,56 L0,38" id="Shape"></path>
                <path d="M0,38 L11,26" id="Shape"></path>
                <path d="M32,14 L75,29" id="Shape"></path>
                <path d="M11,26 L32,4" id="Shape"></path>
                <path d="M32,15 L32,4" id="Shape"></path>
                <path d="M32,4 L75,0" id="Shape"></path>
                <path d="M75,0 L75,29" id="Shape"></path>
                <path d="M75,0 L93,21" id="Shape"></path>
                <path d="M92,56 L55,72" id="Shape"></path>
                <path d="M55,72 L50,118" id="Shape"></path>
                <path d="M50,118 L9,72" id="Shape"></path>
                <path d="M9,72 L0,38" id="Shape"></path>
            </g>
        </g>
    </g>
</svg>