<svg width="600" height="600" viewBox="0 0 600 600" fill="none" xmlns="http://www.w3.org/2000/svg">
<path fill-rule="evenodd" clip-rule="evenodd" d="M251.554 35.1729C245.811 41.6317 245.664 43.1852 250.45 48.9082L253.91 52.9961L252.217 69.1023C242.425 163.941 234.768 263.359 231.602 336.45C230.94 351.249 230.645 353.947 229.614 352.802C229.394 352.557 228.584 338.413 227.847 321.407C224.534 248.97 220.264 171.218 217.172 127.314L216.142 112.27L219.823 107.937C224.682 102.214 224.608 100.743 219.086 94.3655C213.27 87.6614 211.651 87.6613 205.614 94.3655C199.871 100.743 199.797 102.214 204.951 108.019L208.706 112.27L206.202 130.176C200.46 170.646 195.969 212.179 192.877 254.448C189.351 302.786 185.546 371.209 184.621 401.313L108.113 300.775C107.885 300.476 107.666 300.153 107.455 299.806H173.41L174.91 279.806H107.873L150.059 212.124L150.061 212.121C150.12 212.027 150.18 211.933 150.242 211.839L176.755 257L179.41 222.019L166.868 200.654C167.721 200.487 168.497 200.406 169.173 200.406H181.41L183.91 180.406H169.173C162.025 180.406 154.751 183.089 148.753 186.669C142.691 190.286 136.9 195.431 133.09 201.538L90.353 270.104L90.3512 270.107C86.2825 276.631 84.7321 284.5 85.0373 291.782C85.3422 299.056 87.5439 306.771 92.197 312.886L280.429 560.239C285.224 566.539 292.187 570.412 299.874 570.411C307.563 570.411 314.527 566.535 319.318 560.23L507.223 312.92C511.87 306.805 514.069 299.098 514.372 291.826C514.675 284.547 513.121 276.685 509.054 270.164L466.315 201.539C462.505 195.432 456.714 190.286 450.652 186.669C444.654 183.089 437.38 180.406 430.232 180.406H414.91L416.91 200.406H430.232C431.031 200.406 431.968 200.519 433.009 200.754L418.891 224L421.337 258.5L449.425 212.252L491.498 279.806H422.91L424.41 299.806H491.983C491.765 300.169 491.536 300.508 491.299 300.82L413.614 403.065C411.996 363.073 406.82 273.904 403.805 237.279C400.861 201.469 396.37 161.897 391.437 127.15L389.375 112.597L392.909 108.755C394.897 106.547 396.664 104.013 396.885 103.114C397.474 100.661 395.633 97.1453 391.805 93.2209C388.271 89.5418 385.989 88.3971 384.369 89.46C382.749 90.5228 376.86 96.7365 375.534 98.7804C373.694 101.805 374.136 103.441 378.038 108.019L381.792 112.434L379.584 146.609C375.902 203.267 369.203 332.608 369.203 346.834C369.203 351.249 368.393 353.947 367.362 352.884C367.215 352.72 366.773 344.463 366.331 334.57C362.945 260.661 356.981 181.683 347.411 86.108L344.098 52.669L347.337 48.9082C349.104 46.8643 350.797 44.4933 351.092 43.6757C351.754 41.55 349.987 38.2797 345.717 33.8648C340.564 28.4688 339.091 28.6323 333.275 35.1729C327.459 41.6317 327.385 43.0216 332.465 49.1534L336.146 53.6501L333.938 82.5106C329.005 144.973 326.575 188.551 323.925 260.171C322.894 288.05 321.79 314.376 321.495 318.709L320.98 326.64L316.931 321.244C314.722 318.3 311.262 314.703 309.2 313.231C303.752 309.225 302.942 308.244 302.942 305.383C302.942 303.42 303.826 301.867 306.624 298.515C311.556 292.71 311.483 291.239 306.108 285.025C299.924 278.157 298.893 278.076 293.003 284.289C290.427 287.151 288.071 290.094 287.85 290.911C287.261 292.874 288.954 296.307 292.194 299.741C294.402 302.112 294.844 303.175 294.844 305.955C294.844 309.143 294.623 309.47 291.973 310.86C289.322 312.169 283.212 318.382 278.353 324.759L276.512 327.212L276.438 323.369C276.438 321.244 275.923 306.691 275.334 291.075C275.05 283.541 274.663 273.647 274.272 263.662L274.271 263.633C273.853 252.931 273.43 242.125 273.125 234.008C271.874 202.45 270.549 176.287 268.34 141.622C266.573 114.069 262.597 61.0901 262.008 56.7569C261.567 53.8954 261.861 53.3231 265.321 49.2352C270.549 43.1034 270.475 41.1412 264.806 34.7641C258.99 28.3053 257.591 28.387 251.554 35.1729ZM286.41 180.406H311.41L310.41 200.406H287.91L286.41 180.406Z" fill="#DC0526"/>
</svg>
