<svg viewBox="0 0 106 28" fill="none" xmlns="http://www.w3.org/2000/svg">
<path d="M15.4872 5.7845H11.0687L7.86618 18.4734H7.77778L4.53523 5.7845H0L5.37589 22.4973H10.158L15.4872 5.7845Z" fill="currentColor"></path>
<path d="M35.0109 20.261C35.5921 19.4422 35.8984 18.4357 35.8799 17.4056V17.3894C35.8799 16.1654 35.5252 15.1884 34.8157 14.4586C34.1063 13.7287 32.9342 13.1831 31.2996 12.8217L28.6625 12.2133C27.8841 12.0374 27.3387 11.8035 27.0262 11.5116C26.8786 11.3812 26.7603 11.2166 26.68 11.0302C26.5997 10.8437 26.5596 10.6402 26.5626 10.4347V10.4204C26.5557 10.0808 26.6583 9.74918 26.8528 9.4817C27.0721 9.20261 27.3573 8.99241 27.6784 8.87327C28.0831 8.72169 28.5094 8.64818 28.9378 8.65611C29.7234 8.65611 30.3372 8.85892 30.7875 9.25735C31.0013 9.43865 31.1797 9.66356 31.3125 9.91918C31.4453 10.1748 31.5299 10.4561 31.5615 10.747L31.5748 10.8708H35.4746V10.7129C35.4482 9.76048 35.1636 8.83715 34.6556 8.05666C34.091 7.2151 33.3241 6.55492 32.4372 6.14704C31.4781 5.67322 30.3088 5.42913 28.9344 5.42913C27.7606 5.40534 26.5936 5.62722 25.4984 6.08243C24.5983 6.44845 23.8109 7.07747 23.2249 7.89872C22.6802 8.70315 22.397 9.67836 22.4193 10.6734V10.6878C22.4193 11.9357 22.8007 12.9653 23.5635 13.7765C24.3263 14.5878 25.4611 15.1597 26.9679 15.4923L29.6049 16.1008C30.3689 16.2766 30.8998 16.4992 31.1979 16.7684C31.3446 16.8987 31.4616 17.0636 31.5397 17.2504C31.6178 17.4371 31.6549 17.6406 31.6482 17.8453V17.8614C31.6554 18.2031 31.5449 18.5355 31.338 18.7947C31.1004 19.0763 30.7967 19.2839 30.4589 19.3959C30.0145 19.5459 29.5502 19.6168 29.0845 19.6059C28.2505 19.6059 27.5834 19.4264 27.1147 19.0675C26.6397 18.7028 26.3126 18.1563 26.2006 17.5402L26.1722 17.3966H22.0423L22.0557 17.5402C22.1538 18.5438 22.5038 19.4998 23.0681 20.3059C23.6826 21.143 24.4957 21.786 25.4216 22.167C26.4302 22.6145 27.6501 22.8389 29.0812 22.8401C30.2867 22.8656 31.4851 22.6344 32.6073 22.1599C33.552 21.7699 34.3821 21.1141 35.0109 20.261Z" fill="currentColor"></path>
<path d="M57.9989 22.4937H60.8895L62.9328 20.3005H63.0229V22.4973H67.2512V11.0395C67.2724 9.98823 66.9865 8.95626 66.4339 8.08897C65.853 7.21829 65.0566 6.5405 64.1354 6.13268C63.8354 5.99334 63.5266 5.87699 63.2114 5.7845C62.3762 5.546 61.515 5.43009 60.651 5.43991C59.2899 5.43991 58.114 5.66964 57.1249 6.12012L57.0749 6.14166C56.1793 6.53322 55.3961 7.17289 54.8048 7.99564C54.2441 8.7958 53.9053 9.75026 53.8273 10.7488L53.8123 10.9283H57.6954L57.7237 10.7883C57.8367 10.2418 58.143 9.76417 58.5777 9.45657C59.0414 9.10839 59.6686 8.9343 60.4642 8.9343C61.2982 8.9343 61.927 9.14967 62.3624 9.57323C62.5813 9.79644 62.7529 10.0678 62.8654 10.3689C62.978 10.6699 63.0288 10.9936 63.0145 11.3177V12.3425L59.1782 12.5974C58.4651 12.6437 57.7573 12.7585 57.0632 12.9402C56.2127 13.1546 55.4108 13.55 54.7047 14.1032C53.6494 14.9707 53.1206 16.163 53.1184 17.6801V17.7089C53.1119 18.2993 53.2029 18.8863 53.387 19.4426C53.8186 20.3601 54.478 21.1309 55.2922 21.6695C56.1063 22.2081 57.0432 22.4934 57.9989 22.4937ZM57.9572 16.0326C58.3831 15.6736 59.0014 15.4708 59.812 15.4241L63.0145 15.1962V16.4041C63.0201 16.9567 62.8707 17.4984 62.5859 17.9583C62.2928 18.4264 61.89 18.8029 61.4183 19.0495C61.4071 19.0566 61.3954 19.0626 61.3833 19.0675C60.8666 19.3246 60.3027 19.4528 59.7336 19.4426C58.998 19.4426 58.4143 19.2631 57.9789 18.9203C57.7687 18.7573 57.5992 18.541 57.4854 18.2905C57.3716 18.04 57.3171 17.7631 57.3267 17.4845V17.4558C57.3233 17.4158 57.3233 17.3756 57.3267 17.3356C57.3316 17.0801 57.391 16.8292 57.5003 16.6023C57.6097 16.3755 57.766 16.1787 57.9572 16.0272V16.0326Z" fill="currentColor"></path>
<path d="M73.6896 0H69.4579V22.4973H73.6896V0Z" fill="currentColor"></path>
<path d="M86.5664 1.69605H82.2947V22.4973H86.5664V9.21428H89.407V5.7845H86.5664V1.69605Z" fill="currentColor"></path>
<path d="M20.6229 5.78091H16.3779V10.3486H18.4161V10.4419L16.3779 12.6333V22.4937H20.6229V5.78091Z" fill="currentColor"></path>
<path d="M75.8897 10.3486H77.9263V10.4419L75.8897 12.6333V22.4937H80.1347V5.78091H75.8897V10.3486Z" fill="currentColor"></path>
<path d="M37.291 17.9655C37.5152 19.2388 38.1454 20.388 39.073 21.2147C40.0005 22.0414 41.1672 22.4938 42.3716 22.4937H45.2622L47.2989 20.3023H47.3872V22.4937H51.6172V5.78091H47.3872V19.0621H44.2865C43.3402 19.0621 42.6285 18.763 42.1515 18.1647C41.6744 17.5665 41.4348 16.7194 41.4326 15.6234V5.78091H37.2026V16.571C37.2013 17.0345 37.2309 17.4975 37.291 17.9565V17.9655Z" fill="currentColor"></path>
<path d="M101.525 5.7845L98.2556 18.8485H98.1372L94.8579 5.7845H90.2059L95.6852 22.4973H97.3415L95.9671 28H99.7834L106 5.7845H101.525Z" fill="currentColor"></path>
</svg>
