<svg width="602" height="753" viewBox="0 0 602 753" fill="none" xmlns="http://www.w3.org/2000/svg">
<path d="M99.6267 16.5453V32.5453H64.2934C25.7601 32.5453 22.9601 32.9453 15.0934 40.2787C8.2934 46.6786 6.2934 52.9454 6.2934 68.1454V81.8787H13.6267C17.6267 81.8787 20.9601 82.5454 20.9601 83.2121C20.9601 84.0121 16.1601 106.279 10.1601 132.945C0.560061 176.012 -0.506606 182.145 0.160061 190.545C1.36006 205.879 7.49339 220.412 17.2267 231.479C19.6267 234.145 38.4267 249.079 58.9601 264.679C73.9891 275.999 96.1401 294.938 102.693 299.933C105.094 301.763 97.8741 294.198 98.1601 294.412C99.6267 295.479 100.427 295.212 101.493 293.345C106.16 285.212 123.567 277.902 132.5 269.102L142 264.047L140.5 255.011L102.693 223.212C63.2267 193.345 59.6267 190.412 59.6267 187.212C59.6267 186.012 64.6934 162.145 70.9601 134.145C77.2267 106.145 82.2934 82.9454 82.2934 82.5454C82.2934 82.1454 86.1601 81.8787 90.9601 81.8787H99.6267V98.6787V115.612L114.16 114.945C126.827 114.412 129.36 113.879 134.693 110.812C142.293 106.279 147.76 97.4787 148.693 88.412L149.36 81.8787H324.027H498.693L498.027 73.4787C496.693 58.0121 486.56 43.612 471.76 36.6787L464.293 33.212L306.693 32.812L148.96 32.5453V27.4787C148.96 19.0787 143.36 9.21201 136.16 4.54535C130.027 0.67868 129.227 0.545349 114.693 0.545349H99.6267V16.5453Z" fill="#302F35"/>
<path d="M202.828 111.207C189.094 114.007 176.961 122.807 170.694 134.807C166.428 142.807 148.961 184.141 148.961 186.141C148.961 186.807 151.361 190.541 154.294 194.407L159.628 201.474V214.941V228.541H177.094C196.028 228.541 200.694 227.207 203.494 220.941C204.428 218.941 204.961 206.674 204.961 188.407V158.941L220.161 159.474C239.628 160.007 240.294 160.674 246.828 180.541C256.161 209.741 272.428 226.674 297.094 233.207C311.361 237.074 330.694 235.074 344.028 228.407C351.628 224.541 374.161 209.474 374.294 208.141C374.294 207.607 368.294 198.141 360.961 187.207L347.628 167.207L334.428 176.007C319.761 185.741 313.494 187.607 306.694 184.007C300.294 180.807 297.361 175.874 292.961 162.007C284.161 133.341 268.028 116.941 243.761 111.741C234.294 109.741 211.761 109.474 202.828 111.207Z" fill="#302F35"/>
<path d="M478.733 520.667C470.733 523.467 460.999 533.467 458.199 541.467C456.199 547.467 456.199 547.867 458.333 548.534C477.4 554.534 487.933 568.001 487.933 586.401C487.933 595.867 482.066 608.401 474.599 614.667C469.533 619.067 421.4 646.801 411.266 651.334C407.266 653.067 402.333 653.601 391.933 653.734C378.999 653.734 377.266 653.467 369.133 649.601C348.066 639.601 334.5 621.314 334.5 599.047C334.5 592.818 334.553 590.045 334.5 589.047C334 579.547 334 570.547 332.5 558.047C326.9 559.78 307.933 596.667 299.933 598.001L285.399 600.267L286.066 606.401C289.133 632.934 297.799 651.867 314.999 669.867C320.066 675.334 328.599 682.534 333.666 686.001L342.999 692.267L337.133 694.801C318.466 702.801 288.733 704.934 268.599 699.734C218.999 687.067 185.399 644.401 184.999 593.734C184.866 585.601 185.266 577.867 185.666 576.267C186.466 574.001 184.733 572.134 175.799 565.067C169.799 560.401 160.999 552.001 156.199 546.401C151.399 540.934 146.999 536.267 146.466 536.001C143.933 534.934 136.999 564.934 135.266 584.401C134.199 595.734 136.466 618.801 139.799 632.001C161.933 718.401 250.066 770.267 336.333 747.734C353.399 743.201 365.399 737.334 432.599 699.734C469.799 678.801 500.733 662.401 504.599 661.467C520.733 657.067 540.199 666.134 548.199 681.734C552.466 690.001 553 703.201 549.4 713.201C547.666 717.601 546.6 721.467 546.866 721.734C547 721.867 549.266 723.067 551.666 724.267C567.266 732.267 589.933 724.667 597.799 708.801C604.066 696.267 602.333 680.934 592.6 660.401C582.733 639.734 565.133 623.867 543.533 616.001L533.799 612.401L535.533 605.734C538.066 596.267 538.066 575.467 535.4 565.067C530.6 546.001 517.4 526.001 505.933 520.934C499.4 517.867 486.866 517.734 478.733 520.667Z" fill="#302F35"/>
<path d="M51.2993 329.17L135.032 222.003L174.621 252.934L90.888 360.102L51.2993 329.17Z" fill="white"/>
<rect x="247.733" y="603.273" width="135.978" height="35" transform="rotate(-46.371 247.733 603.273)" fill="white"/>
<rect x="154.692" y="504.047" width="110.257" height="35" transform="rotate(46.37 154.692 504.047)" fill="white"/>
<mask id="mask0_32_3" style="mask-type:alpha" maskUnits="userSpaceOnUse" x="90" y="307" width="312" height="261">
<path d="M319.775 363.321L360.886 310.483L402 363.321H319.775ZM310.172 377.482H402L259.392 560.758L310.172 377.482ZM180.831 377.482L232.39 560.479L90 377.482H180.831ZM184.504 359.071L144.415 307.547H231.139L184.504 359.071ZM260.25 307.547H347.586L305.999 360.993L260.25 307.547ZM197.562 363.321L245.899 309.915L291.61 363.321H197.562ZM298.474 377.482L245.959 567.03L192.55 377.482H298.474ZM131.114 310.478L172.228 363.321H90L131.114 310.478Z" fill="black"/>
</mask>
<g mask="url(#mask0_32_3)">
<rect x="90" y="307.553" width="311.903" height="259.353" fill="#931C04"/>
</g>
</svg>
