<?xml version="1.0" encoding="UTF-8" standalone="no"?><!DOCTYPE svg PUBLIC "-//W3C//DTD SVG 1.1//EN" "http://www.w3.org/Graphics/SVG/1.1/DTD/svg11.dtd"><svg width="100%" height="100%" viewBox="0 0 173 171" version="1.1" xmlns="http://www.w3.org/2000/svg" xmlns:xlink="http://www.w3.org/1999/xlink" xml:space="preserve" style="fill-rule:evenodd;clip-rule:evenodd;stroke-linejoin:round;stroke-miterlimit:1.41421;"><path d="M169.519,83.53l0,48.833c-0.09,0.682 -0.049,0.888 -0.402,1.5c-0.131,0.226 -0.318,0.414 -0.477,0.621l-33.544,33.544l-0.001,0c-0.16,0.161 -0.339,0.303 -0.533,0.424c-0.029,0.018 -0.058,0.036 -0.087,0.053c-0.183,0.119 -0.383,0.208 -0.724,0.3c-0.081,0.021 -0.162,0.04 -0.245,0.054l-0.001,0l-0.003,0.001l-0.015,0.003l-0.003,0l-0.002,0.001l-0.01,0.001l-0.009,0.002l-0.002,0l-0.003,0.001l-0.019,0.003l0,0l0,0c-0.103,0.016 -0.207,0.027 -0.311,0.032c-0.018,0.001 -0.036,0.002 -0.054,0.002l-0.002,0l-0.003,0l-0.012,0.001l-0.005,0l-0.004,0l-0.009,0l-0.005,0l-0.003,0l-0.008,0.001l-0.013,0l0,0l-0.001,0c-0.011,0 -0.023,0 -0.035,0c-0.083,0 -0.166,-0.004 -0.249,-0.01l-0.02,-0.002l-0.004,-0.001l-0.021,-0.002c-0.103,-0.01 -0.206,-0.025 -0.307,-0.046c-0.335,-0.068 -0.533,-0.142 -0.718,-0.245c-0.227,-0.111 -0.44,-0.251 -0.632,-0.416l-0.001,0l-94.317,-80.801l-0.001,0c-0.058,-0.05 -0.115,-0.103 -0.169,-0.157c-0.113,-0.113 -0.218,-0.236 -0.312,-0.367c-0.005,-0.007 -0.01,-0.014 -0.015,-0.021c-0.025,-0.035 -0.048,-0.07 -0.072,-0.106l-0.005,-0.009l-0.005,-0.007l-0.004,-0.006l-0.005,-0.008c-0.02,-0.032 -0.04,-0.065 -0.058,-0.097c-0.069,-0.12 -0.13,-0.243 -0.182,-0.37l-0.002,-0.006l-0.004,-0.01l-0.003,-0.009l-0.002,-0.003l-0.003,-0.009l-0.004,-0.009l-0.002,-0.005l-0.003,-0.008l-0.003,-0.009l-0.002,-0.006l-0.003,-0.007l-0.003,-0.009l-0.003,-0.007l-0.002,-0.007l-0.003,-0.008l-0.003,-0.008l-0.002,-0.006l-0.003,-0.007l-0.002,-0.005l-0.001,-0.005l-0.002,-0.006l-0.003,-0.006l-0.002,-0.006l-0.001,-0.005l-0.002,-0.005l-0.002,-0.006l-0.002,-0.007l-0.002,-0.006l-0.002,-0.004l-0.001,-0.005l-0.003,-0.008l-0.002,-0.006l-0.002,-0.008l-0.003,-0.008l-0.002,-0.007l-0.002,-0.007l-0.003,-0.009l-0.002,-0.008l-0.002,-0.005l-0.003,-0.011l-0.002,-0.007l-0.002,-0.005l-0.003,-0.011l-0.002,-0.007l-0.001,-0.004l-0.006,-0.022l-0.006,-0.022c-0.002,-0.008 -0.004,-0.015 -0.006,-0.023l-0.006,-0.022l0,-0.002l-0.005,-0.02l-0.003,-0.011l-0.003,-0.012l-0.001,-0.005l-0.002,-0.007l-0.002,-0.01l-0.001,-0.007l-0.002,-0.007l-0.002,-0.009l-0.002,-0.007l-0.001,-0.007l-0.002,-0.008l-0.002,-0.009l-0.001,-0.007l-0.002,-0.007l-0.001,-0.005l-0.001,-0.005l-0.001,-0.006l-0.001,-0.007l-0.001,-0.006l-0.001,-0.005l-0.001,-0.006l-0.001,-0.005l-0.002,-0.007l-0.001,-0.006l-0.002,-0.01l-0.001,-0.008l-0.001,-0.007l-0.002,-0.008l-0.001,-0.008l-0.001,-0.008l-0.001,-0.006l-0.002,-0.01l-0.001,-0.008l-0.001,-0.005l-0.002,-0.011l-0.001,-0.008l0,-0.004l-0.004,-0.023l-0.003,-0.022c-0.001,-0.008 -0.002,-0.016 -0.003,-0.024l-0.003,-0.024l-0.002,-0.021l0,-0.004l-0.001,-0.009l-0.001,-0.01l-0.001,-0.005l-0.001,-0.009l-0.001,-0.009l0,-0.007l-0.001,-0.007l-0.001,-0.009l0,-0.008l-0.001,-0.007l0,-0.008l-0.001,-0.01l-0.001,-0.006l0,-0.007l-0.001,-0.006l0,-0.005l0,-0.006l-0.001,-0.006l0,-0.007l0,-0.006l-0.001,-0.005l0,-0.005l0,-0.008l-0.001,-0.006l0,-0.009l-0.001,-0.009l0,-0.007l0,-0.007l0,-0.01l-0.001,-0.008l0,-0.005l0,-0.011l0,-0.008l-0.001,-0.004l0,-0.023l0,-0.023c0,-0.008 0,-0.016 0,-0.024l0,0l0,-0.004l0,-0.019l0,-0.001l0,-0.001l0,-0.004l0,-0.017l0,-0.002l0,-0.001l0,-0.003l0,-0.017l0.001,-0.004l0,-0.001l0,0c0.002,-0.099 0.009,-0.197 0.021,-0.295c0.008,-0.064 0.018,-0.128 0.031,-0.192l0,0l0,-0.001l0.002,-0.012l0.002,-0.007l0,-0.005l0.002,-0.005l0.001,-0.006l0,-0.004l0.002,-0.009l0.002,-0.009l0,0l0,0c0.011,-0.053 0.024,-0.106 0.038,-0.158c0.011,-0.043 0.024,-0.086 0.038,-0.13l0.001,-0.003l0.001,-0.002l0.001,-0.006l0.002,-0.006l0.003,-0.008l0.002,-0.007l0.001,-0.002l0.001,-0.002c0.015,-0.047 0.032,-0.094 0.05,-0.141c0.121,-0.31 0.223,-0.489 0.35,-0.651c0.098,-0.138 0.207,-0.268 0.326,-0.386c0.055,-0.055 0.111,-0.107 0.17,-0.157l0,0l0.746,-0.64l132.068,0l0,1.342Zm-33.545,75.134l0,-63.512l24.916,37.998c0.108,0.125 0.195,0.232 0.273,0.326l-25.189,25.188Zm-6,-70.558l0,67.427l-56.558,-67.427l56.558,0Zm-83.204,0l18.814,0l48.047,57.28l-66.861,-57.28Zm116.749,0l0,38.111l-24.99,-38.111l24.99,0Z" style="fill:#f3baba;"/><g><path d="M169.486,87.981l-132.035,0l-0.746,-0.64l0,0c-0.059,-0.05 -0.115,-0.102 -0.17,-0.157c-0.119,-0.119 -0.228,-0.248 -0.326,-0.386c-0.127,-0.162 -0.229,-0.341 -0.35,-0.651c-0.018,-0.047 -0.035,-0.094 -0.05,-0.142l-0.001,-0.001l-0.001,-0.002l-0.002,-0.007l-0.003,-0.008l-0.002,-0.006l-0.001,-0.006l-0.001,-0.002l-0.001,-0.004c-0.014,-0.043 -0.027,-0.086 -0.038,-0.13c-0.014,-0.051 -0.027,-0.104 -0.038,-0.157l0,0l0,0l-0.002,-0.009l-0.002,-0.009l0,-0.005l-0.001,-0.005l-0.002,-0.006l0,-0.004l-0.002,-0.007l-0.002,-0.012l0,-0.001l0,0c-0.013,-0.064 -0.023,-0.128 -0.031,-0.192c-0.012,-0.098 -0.019,-0.197 -0.021,-0.295l0,-0.001l0,0l-0.001,-0.004l0,-0.017l0,-0.003l0,-0.001l0,-0.003l0,-0.016l0,-0.005l0,0l0,-0.002l0,-0.018l0,-0.004l0,0c0,-0.008 0,-0.016 0,-0.024l0,-0.001l0,-0.004l0,-0.018l0,-0.001l0,-0.001l0,-0.008l0,-0.013l0,-0.002l0.001,-0.002l0,-0.008l0,-0.011l0,-0.003l0,-0.003l0.001,-0.007l0,-0.01l0,-0.004l0,-0.003l0,-0.007l0.001,-0.009l0,-0.005l0,-0.004l0.001,-0.006l0,-0.008l0,-0.005l0.001,-0.005l0,-0.006l0,-0.007l0.001,-0.006l0,-0.006l0,-0.005l0.001,-0.006l0,-0.007l0.001,-0.006l0,-0.005l0.001,-0.005l0,-0.008l0.001,-0.007l0,-0.004l0,-0.004l0.001,-0.009l0.001,-0.007l0,-0.004l0,-0.003l0.001,-0.01l0.001,-0.008l0,-0.002l0.001,-0.003l0.001,-0.011l0.001,-0.008l0,-0.002l0,-0.002l0.001,-0.012l0.001,-0.009l0,-0.001l0.001,-0.001l0.001,-0.015l0.001,-0.007l0,0c0.001,-0.008 0.002,-0.016 0.003,-0.024l0,0l0.001,-0.008l0.002,-0.014l0.001,-0.001l0,-0.002l0.001,-0.008l0.002,-0.012l0,-0.002l0,-0.002l0.001,-0.008l0.002,-0.011l0,-0.003l0.001,-0.002l0.001,-0.008l0.002,-0.01l0,-0.003l0.001,-0.003l0.001,-0.008l0.001,-0.008l0.001,-0.005l0.001,-0.004l0.001,-0.006l0.001,-0.008l0.001,-0.005l0.001,-0.005l0.001,-0.006l0.002,-0.007l0.001,-0.006l0.001,-0.005l0.001,-0.005l0.001,-0.006l0.001,-0.007l0.001,-0.006l0.001,-0.005l0.001,-0.005l0.002,-0.007l0.001,-0.007l0.001,-0.004l0.001,-0.005l0.002,-0.008l0.001,-0.007l0.001,-0.003l0.001,-0.004l0.002,-0.009l0.002,-0.008l0,-0.002l0.001,-0.004l0.002,-0.01l0.002,-0.007l0.001,-0.003l0,-0.002l0.003,-0.012l0.002,-0.007l0,-0.002l0.001,-0.002l0.003,-0.013l0.002,-0.007l0,-0.001l0,-0.001l0.005,-0.018l0.001,-0.004l0,0c0.002,-0.008 0.004,-0.015 0.006,-0.023l0,0l0.001,-0.004l0.005,-0.018l0,-0.001l0,-0.001l0.002,-0.007l0.004,-0.013l0,-0.002l0.001,-0.002l0.002,-0.007l0.003,-0.012l0.001,-0.002l0.001,-0.002l0.002,-0.007l0.003,-0.011l0.001,-0.003l0.001,-0.003l0.002,-0.007l0.003,-0.009l0.001,-0.004l0.001,-0.003l0.002,-0.007l0.003,-0.008l0.001,-0.004l0.001,-0.004l0.002,-0.007l0.003,-0.007l0.001,-0.005l0.002,-0.005l0.002,-0.005l0.002,-0.007l0.002,-0.006l0.002,-0.005l0.001,-0.005l0.002,-0.006l0.003,-0.006l0.002,-0.006l0.001,-0.005l0.002,-0.005l0.003,-0.007l0.002,-0.006l0.001,-0.004l0.002,-0.005l0.003,-0.007l0.002,-0.007l0.001,-0.004l0.002,-0.003l0.003,-0.009l0.003,-0.007l0.001,-0.003l0.001,-0.003l0.003,-0.009l0.003,-0.008l0.001,-0.002l0.001,-0.003l0.004,-0.009l0.003,-0.009l0.001,-0.002l0.001,-0.001l0.003,-0.009l0.004,-0.011l0.001,-0.001l0,-0.001l0.001,-0.003c0.052,-0.127 0.113,-0.25 0.182,-0.37c0.018,-0.033 0.038,-0.065 0.058,-0.097l0.001,-0.002l0.001,-0.001l0.003,-0.005l0.004,-0.006l0.005,-0.008l0.003,-0.005l0.001,-0.001l0.001,-0.002c0.024,-0.036 0.047,-0.072 0.072,-0.106c0.005,-0.007 0.01,-0.014 0.015,-0.021c0.094,-0.131 0.199,-0.254 0.312,-0.367c0.054,-0.054 0.111,-0.107 0.169,-0.157l0.001,0l94.317,-80.801l0.001,0c0.192,-0.166 0.405,-0.305 0.632,-0.417c0.185,-0.102 0.383,-0.176 0.718,-0.244c0.101,-0.021 0.204,-0.036 0.307,-0.047l0,0l0.005,0l0.016,-0.002l0.002,0l0.002,0l0.018,-0.001l0.002,-0.001l0,0c0.083,-0.007 0.166,-0.01 0.249,-0.01c0.012,0 0.024,0 0.035,0l0.014,0l0.011,0.001l0.005,0l0.009,0l0.004,0l0.005,0l0.015,0.001l0.002,0c0.018,0 0.036,0.001 0.054,0.002c0.104,0.005 0.208,0.016 0.311,0.032l0.019,0.003l0.005,0.001l0.009,0.002l0.01,0.001l0.005,0.001l0.018,0.003l0.001,0.001c0.083,0.014 0.164,0.033 0.245,0.054c0.341,0.092 0.541,0.181 0.724,0.3c0.029,0.017 0.058,0.035 0.087,0.053c0.194,0.121 0.373,0.263 0.533,0.424l0.001,0l33.544,33.544c0.159,0.207 0.346,0.395 0.477,0.621c0.353,0.612 0.312,0.818 0.402,1.5l0,44.175l-0.033,0l0,6Zm-122.716,-5.918l18.814,0l48.047,-57.28l-66.861,57.28Zm83.204,0l0,-67.427l-56.558,67.427l56.558,0Zm33.545,0l0,-38.111l-24.99,38.111l24.99,0Zm-27.545,-70.558l0,63.512l24.916,-37.998c0.108,-0.125 0.195,-0.232 0.273,-0.326l-25.189,-25.188Z" style="fill:#e25454;"/></g><path d="M3.224,76.32l0,-38.514c0.09,-0.682 0.049,-0.888 0.402,-1.5c0.13,-0.226 0.318,-0.414 0.477,-0.621l33.544,-33.544l0,0c0.16,-0.161 0.339,-0.303 0.533,-0.424c0.029,-0.018 0.058,-0.036 0.088,-0.053c0.182,-0.119 0.382,-0.208 0.724,-0.3c0.08,-0.021 0.162,-0.04 0.244,-0.054l0.001,-0.001l0.004,0l0.014,-0.003l0.004,0l0.001,-0.001l0.01,-0.001l0.009,-0.002l0.002,0l0.003,-0.001l0.019,-0.003l0.001,0l0,0c0.103,-0.016 0.206,-0.027 0.31,-0.032c0.018,-0.001 0.037,-0.002 0.055,-0.002l0.001,0l0.003,-0.001l0.012,0l0.005,0l0.005,0l0.008,0l0.006,0l0.003,-0.001l0.007,0l0.013,0l0.001,0l0,0c0.012,0 0.023,0 0.035,0c0.083,0 0.166,0.003 0.249,0.01l0.021,0.002l0.003,0l0.021,0.002c0.104,0.011 0.206,0.026 0.308,0.047c0.334,0.068 0.533,0.142 0.717,0.244c0.227,0.112 0.44,0.251 0.633,0.417l0,0l94.318,80.801l0,0c0.059,0.05 0.115,0.103 0.169,0.157c0.114,0.113 0.218,0.236 0.312,0.367c0.005,0.007 0.01,0.014 0.015,0.021c0.025,0.034 0.049,0.07 0.072,0.106l0.006,0.008l0.004,0.008l0.004,0.006l0.006,0.008c0.02,0.032 0.039,0.064 0.058,0.097c0.069,0.12 0.129,0.243 0.181,0.37l0.002,0.005l0.004,0.011l0.005,0.012l0.003,0.009l0.004,0.009l0.002,0.005l0.003,0.008l0.003,0.009l0.003,0.006l0.003,0.007l0.003,0.009l0.002,0.007l0.003,0.007l0.003,0.007l0.003,0.009l0.002,0.006l0.002,0.007l0.002,0.005l0.002,0.005l0.002,0.006l0.002,0.006l0.002,0.006l0.002,0.005l0.001,0.005l0.002,0.006l0.003,0.007l0.002,0.005l0.001,0.005l0.002,0.005l0.002,0.007l0.002,0.007l0.003,0.008l0.002,0.008l0.002,0.007l0.003,0.007l0.003,0.009l0.002,0.007l0.001,0.006l0.003,0.011l0.003,0.007l0.001,0.004l0.003,0.012l0.003,0.011l0.006,0.02l0.001,0.002l0.006,0.022c0.002,0.008 0.004,0.015 0.006,0.023l0.005,0.022l0.006,0.022l0.001,0.004l0.001,0.007l0.003,0.012l0.001,0.005l0.002,0.007l0.002,0.01l0.002,0.006l0.001,0.008l0.002,0.009l0.002,0.007l0.002,0.007l0.001,0.008l0.002,0.009l0.001,0.007l0.002,0.007l0.001,0.005l0.001,0.005l0.001,0.006l0.001,0.007l0.002,0.006l0.001,0.005l0.001,0.005l0.001,0.006l0.001,0.007l0.001,0.006l0.002,0.01l0.001,0.008l0.002,0.006l0.001,0.009l0.001,0.008l0.002,0.008l0.001,0.006l0.001,0.01l0.001,0.008l0.001,0.005l0.002,0.011l0.001,0.008l0.001,0.004l0.003,0.02l0,0.003l0.003,0.022c0.001,0.008 0.002,0.016 0.003,0.024l0.003,0.022l0.002,0.023l0.001,0.004l0.001,0.008l0.001,0.011l0,0.005l0.001,0.008l0.001,0.01l0.001,0.007l0,0.007l0.001,0.009l0.001,0.008l0,0.007l0.001,0.008l0.001,0.01l0,0.006l0.001,0.007l0,0.006l0,0.005l0.001,0.006l0,0.006l0,0.007l0.001,0.006l0,0.005l0,0.005l0.001,0.008l0,0.006l0.001,0.009l0,0.009l0,0.007l0.001,0.007l0,0.01l0,0.007l0,0.006l0.001,0.011l0,0.008l0,0.004l0,0.021l0,0.002l0.001,0.023c0,0.008 0,0.016 0,0.024l0,0l0,0.004l0,0.018l0,0.002l0,0l0,0.005l-0.001,0.016l0,0.003l0,0.001l0,0.003l0,0.017l0,0.004l0,0l0,0.001c-0.003,0.098 -0.01,0.197 -0.022,0.295c-0.008,0.064 -0.018,0.128 -0.03,0.192l0,0l0,0.001l-0.003,0.012l-0.001,0.007l-0.001,0.004l-0.001,0.006l-0.001,0.005l-0.001,0.005l-0.002,0.009l-0.002,0.009l0,0l0,0c-0.011,0.053 -0.024,0.106 -0.037,0.157c-0.012,0.044 -0.025,0.087 -0.038,0.13l-0.001,0.004l-0.001,0.002l-0.002,0.006l-0.002,0.006l-0.003,0.008l-0.002,0.007l-0.001,0.002l0,0.001c-0.016,0.048 -0.033,0.095 -0.051,0.142c-0.12,0.31 -0.223,0.489 -0.35,0.651c-0.098,0.138 -0.207,0.267 -0.326,0.386c-0.054,0.055 -0.111,0.107 -0.169,0.157l0,0l-0.747,0.64l-132.034,0l0,-11.661l-0.033,0Zm122.749,5.743l-66.862,-57.28l48.047,57.28l18.815,0Zm-26.646,0l-56.559,-67.427l0,67.427l56.559,0Zm-65.113,0l-24.99,-38.111l0,38.111l24.99,0Zm2.554,-70.558l0,63.512l-24.915,-37.998c-0.109,-0.125 -0.195,-0.232 -0.273,-0.326l25.188,-25.188Z" style="fill:#e25454;"/></svg>
