<?xml version="1.0" encoding="UTF-8" standalone="no"?>
<svg
   viewBox="0 0 2603 2603"
   version="1.1"
   id="svg3"
   sodipodi:docname="ruby-banitsa.svg"
   inkscape:version="1.3.2 (091e20ef0f, 2023-11-25, custom)"
   xmlns:inkscape="http://www.inkscape.org/namespaces/inkscape"
   xmlns:sodipodi="http://sodipodi.sourceforge.net/DTD/sodipodi-0.dtd"
   xmlns="http://www.w3.org/2000/svg"
   xmlns:svg="http://www.w3.org/2000/svg">
  <defs
     id="defs3" />
  <sodipodi:namedview
     id="namedview3"
     pagecolor="#ffffff"
     bordercolor="#000000"
     borderopacity="0.25"
     inkscape:showpageshadow="2"
     inkscape:pageopacity="0.0"
     inkscape:pagecheckerboard="0"
     inkscape:deskcolor="#d1d1d1"
     inkscape:zoom="0.31502113"
     inkscape:cx="1299.9128"
     inkscape:cy="1301.5"
     inkscape:window-width="1896"
     inkscape:window-height="1026"
     inkscape:window-x="10"
     inkscape:window-y="40"
     inkscape:window-maximized="1"
     inkscape:current-layer="svg3" />
  <path
     d="M807 74c-285,237 -569,619 -751,943 81,310 159,686 278,988 273,183 659,435 968,539 379,-118 775,-423 1051,-657 85,-327 160,-617 194,-954 -226,-340 -423,-561 -733,-843 -367,-39 -624,-37 -1007,-16z"
     fill="currentColor"
     id="path1"
     style="stroke:none;stroke-opacity:1;fill:#000000;fill-opacity:1" />
  <path
     d="M832 136c-270,225 -540,588 -713,895 77,294 151,651 264,938 259,174 625,414 919,512 360,-112 735,-401 998,-624 80,-310 151,-585 184,-905 -215,-323 -402,-533 -696,-801 -349,-37 -592,-34 -956,-15z"
     class="fill-brand-500"
     id="path2"
     style="fill:#e03647;fill-opacity:1;stroke:#000000;stroke-opacity:1" />
  <path
     d="M1266 1185c136,0 164,105 132,187 -46,116 -558,190 -464,-248 76,-357 322,-415 536,-289 329,195 310,467 149,697 -136,194 -292,280 -444,282 -165,3 -361,-92 -483,-251 -151,-196 -138,-426 -48,-634 123,-284 308,-457 523,-502 399,-85 702,221 850,553 122,275 81,483 -148,752 -310,365 -536,234 -564,748"
     fill="none"
     stroke="currentColor"
     stroke-width="55.5551"
     stroke-linecap="round"
     id="path3"
     style="fill:none;fill-opacity:1;stroke-width:55.555;stroke-dasharray:none" />
</svg>
